<svg xmlns="http://www.w3.org/2000/svg" viewBox="0 0 4 1.77" version="1.1" class="black"><style> svg { font-family: "HelveticaNeue", "Roboto", sans-serif; text-anchor: middle; } .black>.board { fill: #171818; stroke: #333333; } .white>.board { fill: #F5F5F7; stroke: #CCCCCC; } .board { stroke-width: 0.02; } .char { font-size: 0.14px; width: 0.09px; height: 0.11px; dominant-baseline: hanging; } .black, .white>text.char, .black>rect.blank { fill: #141414; } .white, .black>text.char, .white>rect.blank { fill: #FFFFFF; } .red { fill: #DA291C; } .orange { fill: #FA7400; } .yellow { fill: #FCB81B; } .green { fill: #1F9A44; } .blue { fill: #2083D5; } .violet { fill: #702F8A; } .logo { font-size: 0.11px; } .black>.logo { fill: #333333; } .white>.logo { fill: #CCCCCC; } </style><rect class="board" x="0.01" y="0.01" width="3.98" height="1.75" /><rect class="char red" x="0.2" y="0.2"/><rect class="char red" x="0.366" y="0.2"/><rect class="char red" x="0.532" y="0.2"/><rect class="char red" x="0.698" y="0.2"/><rect class="char red" x="0.8640000000000001" y="0.2"/><rect class="char red" x="1.03" y="0.2"/><rect class="char orange" x="1.196" y="0.2"/><rect class="char orange" x="1.362" y="0.2"/><rect class="char orange" x="1.528" y="0.2"/><rect class="char orange" x="1.694" y="0.2"/><rect class="char orange" x="1.86" y="0.2"/><rect class="char orange" x="2.0260000000000002" y="0.2"/><rect class="char orange" x="2.192" y="0.2"/><rect class="char orange" x="2.358" y="0.2"/><rect class="char orange" x="2.5240000000000005" y="0.2"/><rect class="char yellow" x="2.6900000000000004" y="0.2"/><rect class="char yellow" x="2.8560000000000003" y="0.2"/><rect class="char yellow" x="3.0220000000000002" y="0.2"/><rect class="char yellow" x="3.188" y="0.2"/><rect class="char yellow" x="3.3540000000000005" y="0.2"/><rect class="char yellow" x="3.5200000000000005" y="0.2"/><rect class="char yellow" x="3.6860000000000004" y="0.2"/><rect class="char red" x="0.2" y="0.44"/><rect class="char blank" x="0.366" y="0.44"/><rect class="char blank" x="0.532" y="0.44"/><rect class="char blank" x="0.698" y="0.44"/><rect class="char blank" x="0.8640000000000001" y="0.44"/><rect class="char blank" x="1.03" y="0.44"/><rect class="char blank" x="1.196" y="0.44"/><rect class="char blank" x="1.362" y="0.44"/><rect class="char blank" x="1.528" y="0.44"/><rect class="char blank" x="1.694" y="0.44"/><rect class="char blank" x="1.86" y="0.44"/><rect class="char blank" x="2.0260000000000002" y="0.44"/><rect class="char blank" x="2.192" y="0.44"/><rect class="char blank" x="2.358" y="0.44"/><rect class="char blank" x="2.5240000000000005" y="0.44"/><rect class="char blank" x="2.6900000000000004" y="0.44"/><rect class="char blank" x="2.8560000000000003" y="0.44"/><rect class="char blank" x="3.0220000000000002" y="0.44"/><rect class="char blank" x="3.188" y="0.44"/><rect class="char blank" x="3.3540000000000005" y="0.44"/><rect class="char blank" x="3.5200000000000005" y="0.44"/><rect class="char yellow" x="3.6860000000000004" y="0.44"/><rect class="char red" x="0.2" y="0.6799999999999999"/><rect class="char blank" x="0.366" y="0.6799999999999999"/><rect class="char blank" x="0.532" y="0.6799999999999999"/><text class="char" x="0.743" y="0.6799999999999999">N</text><text class="char" x="0.9090000000000001" y="0.6799999999999999">O</text><text class="char" x="1.075" y="0.6799999999999999">W</text><rect class="char blank" x="1.196" y="0.6799999999999999"/><text class="char" x="1.407" y="0.6799999999999999">C</text><text class="char" x="1.573" y="0.6799999999999999">O</text><text class="char" x="1.7389999999999999" y="0.6799999999999999">N</text><text class="char" x="1.905" y="0.6799999999999999">N</text><text class="char" x="2.071" y="0.6799999999999999">E</text><text class="char" x="2.237" y="0.6799999999999999">C</text><text class="char" x="2.403" y="0.6799999999999999">T</text><text class="char" x="2.5690000000000004" y="0.6799999999999999">E</text><text class="char" x="2.7350000000000003" y="0.6799999999999999">D</text><rect class="char blank" x="2.8560000000000003" y="0.6799999999999999"/><text class="char" x="3.067" y="0.6799999999999999">T</text><text class="char" x="3.233" y="0.6799999999999999">O</text><rect class="char blank" x="3.3540000000000005" y="0.6799999999999999"/><rect class="char blank" x="3.5200000000000005" y="0.6799999999999999"/><rect class="char yellow" x="3.6860000000000004" y="0.6799999999999999"/><rect class="char violet" x="0.2" y="0.9199999999999999"/><rect class="char blank" x="0.366" y="0.9199999999999999"/><rect class="char blank" x="0.532" y="0.9199999999999999"/><rect class="char blank" x="0.698" y="0.9199999999999999"/><text class="char" x="0.9090000000000001" y="0.9199999999999999">H</text><text class="char" x="1.075" y="0.9199999999999999">O</text><text class="char" x="1.2409999999999999" y="0.9199999999999999">M</text><text class="char" x="1.407" y="0.9199999999999999">E</text><rect class="char blank" x="1.528" y="0.9199999999999999"/><text class="char" x="1.7389999999999999" y="0.9199999999999999">A</text><text class="char" x="1.905" y="0.9199999999999999">S</text><text class="char" x="2.071" y="0.9199999999999999">S</text><text class="char" x="2.237" y="0.9199999999999999">I</text><text class="char" x="2.403" y="0.9199999999999999">S</text><text class="char" x="2.5690000000000004" y="0.9199999999999999">T</text><text class="char" x="2.7350000000000003" y="0.9199999999999999">A</text><text class="char" x="2.9010000000000002" y="0.9199999999999999">N</text><text class="char" x="3.067" y="0.9199999999999999">T</text><rect class="char blank" x="3.188" y="0.9199999999999999"/><rect class="char blank" x="3.3540000000000005" y="0.9199999999999999"/><rect class="char blank" x="3.5200000000000005" y="0.9199999999999999"/><rect class="char green" x="3.6860000000000004" y="0.9199999999999999"/><rect class="char violet" x="0.2" y="1.16"/><rect class="char blank" x="0.366" y="1.16"/><rect class="char blank" x="0.532" y="1.16"/><rect class="char blank" x="0.698" y="1.16"/><rect class="char blank" x="0.8640000000000001" y="1.16"/><rect class="char blank" x="1.03" y="1.16"/><rect class="char blank" x="1.196" y="1.16"/><rect class="char blank" x="1.362" y="1.16"/><rect class="char blank" x="1.528" y="1.16"/><rect class="char blank" x="1.694" y="1.16"/><rect class="char blank" x="1.86" y="1.16"/><rect class="char blank" x="2.0260000000000002" y="1.16"/><rect class="char blank" x="2.192" y="1.16"/><rect class="char blank" x="2.358" y="1.16"/><rect class="char blank" x="2.5240000000000005" y="1.16"/><rect class="char blank" x="2.6900000000000004" y="1.16"/><rect class="char blank" x="2.8560000000000003" y="1.16"/><rect class="char blank" x="3.0220000000000002" y="1.16"/><rect class="char blank" x="3.188" y="1.16"/><rect class="char blank" x="3.3540000000000005" y="1.16"/><rect class="char blank" x="3.5200000000000005" y="1.16"/><rect class="char green" x="3.6860000000000004" y="1.16"/><rect class="char violet" x="0.2" y="1.4"/><rect class="char violet" x="0.366" y="1.4"/><rect class="char violet" x="0.532" y="1.4"/><rect class="char violet" x="0.698" y="1.4"/><rect class="char violet" x="0.8640000000000001" y="1.4"/><rect class="char violet" x="1.03" y="1.4"/><rect class="char violet" x="1.196" y="1.4"/><rect class="char blue" x="1.362" y="1.4"/><rect class="char blue" x="1.528" y="1.4"/><rect class="char blue" x="1.694" y="1.4"/><rect class="char blue" x="1.86" y="1.4"/><rect class="char blue" x="2.0260000000000002" y="1.4"/><rect class="char blue" x="2.192" y="1.4"/><rect class="char blue" x="2.358" y="1.4"/><rect class="char blue" x="2.5240000000000005" y="1.4"/><rect class="char blue" x="2.6900000000000004" y="1.4"/><rect class="char green" x="2.8560000000000003" y="1.4"/><rect class="char green" x="3.0220000000000002" y="1.4"/><rect class="char green" x="3.188" y="1.4"/><rect class="char green" x="3.3540000000000005" y="1.4"/><rect class="char green" x="3.5200000000000005" y="1.4"/><rect class="char green" x="3.6860000000000004" y="1.4"/><text class="logo" x="50%" y="1.68">VESTABOARD</text></svg>